<?xml version="1.0" encoding="UTF-8" ?>
<!DOCTYPE svg PUBLIC "-//W3C//DTD SVG 1.1//EN" "http://www.w3.org/Graphics/SVG/1.1/DTD/svg11.dtd">
<svg width="256pt" height="256pt" viewBox="0 0 256 256" version="1.1" xmlns="http://www.w3.org/2000/svg">
<g id="#51a8b1ff">
<path fill="#51a8b1" opacity="1.00" d=" M 125.26 0.00 L 129.76 0.00 C 161.33 0.34 192.54 12.90 215.49 34.59 C 240.71 57.99 255.66 91.89 256.00 126.29 L 256.00 129.82 C 255.62 161.36 243.07 192.53 221.41 215.47 C 198.02 240.69 164.12 255.66 129.72 256.00 L 126.22 256.00 C 95.15 255.63 64.41 243.49 41.58 222.40 C 15.73 198.97 0.32 164.61 0.00 129.73 L 0.00 125.30 C 0.61 90.73 15.97 56.78 41.60 33.57 C 64.19 12.70 94.53 0.62 125.26 0.00 M 125.38 15.37 C 124.82 16.71 125.42 18.95 123.66 19.44 C 122.61 18.70 121.64 17.84 120.67 17.00 C 119.16 17.97 117.65 18.94 116.14 19.92 C 116.69 21.12 117.23 22.31 117.77 23.50 C 116.76 23.26 114.73 22.78 113.72 22.54 C 112.39 26.56 110.57 30.70 111.07 35.02 C 112.17 35.38 113.28 35.70 114.40 35.97 C 113.61 36.81 112.83 37.64 112.05 38.47 C 112.79 40.00 113.54 41.52 114.28 43.05 C 115.06 42.87 116.60 42.50 117.37 42.32 C 118.15 43.42 118.92 44.53 119.69 45.64 C 119.18 49.78 119.57 53.95 119.17 58.09 C 120.59 59.46 121.86 61.51 124.09 61.40 C 127.12 61.54 130.21 61.72 133.20 61.16 C 134.57 60.34 135.66 59.15 136.81 58.07 C 136.27 53.96 137.13 49.76 136.10 45.71 C 137.32 43.94 138.51 41.79 140.97 41.77 C 143.94 41.73 143.74 38.14 143.88 36.05 C 145.41 34.13 144.95 31.65 144.92 29.38 C 144.00 29.29 142.15 29.11 141.23 29.01 C 142.15 28.14 143.07 27.27 144.00 26.40 C 143.10 24.78 142.20 23.16 141.29 21.55 C 140.37 21.90 138.53 22.59 137.61 22.94 C 138.02 21.68 138.44 20.41 138.86 19.15 C 137.30 18.24 135.74 17.32 134.19 16.42 C 133.21 17.43 132.23 18.44 131.24 19.45 C 131.08 18.08 130.92 16.72 130.77 15.36 C 128.97 15.36 127.17 15.37 125.38 15.37 M 103.37 36.49 C 101.52 36.61 99.01 38.12 101.01 39.95 C 103.02 40.09 105.28 39.71 106.55 37.96 C 106.39 35.98 104.87 36.00 103.37 36.49 M 151.05 36.90 C 150.24 40.67 155.16 40.12 157.52 40.40 C 157.36 37.14 153.70 36.13 151.05 36.90 M 88.89 44.18 C 91.62 44.57 95.51 42.99 94.39 39.65 C 92.27 40.56 87.67 40.71 88.89 44.18 M 162.93 40.83 C 161.92 43.98 165.94 44.57 168.12 45.11 C 170.20 41.98 165.39 40.19 162.93 40.83 M 81.39 45.46 C 79.60 46.38 76.59 47.51 77.98 50.04 C 79.95 50.34 81.81 49.24 83.05 47.80 C 84.96 47.07 82.33 44.89 81.39 45.46 M 71.23 52.36 C 69.34 53.16 66.77 54.69 67.77 57.12 C 69.81 57.77 71.59 56.05 72.93 54.75 C 73.52 53.44 72.73 51.99 71.23 52.36 M 58.33 64.18 C 58.44 65.47 59.35 66.40 60.68 65.75 C 62.84 64.55 64.54 62.15 63.06 59.73 C 61.34 61.00 59.04 61.99 58.33 64.18 M 193.15 62.20 C 193.11 64.23 194.79 65.70 196.30 66.80 C 197.61 67.48 199.38 65.98 198.39 64.70 C 197.42 62.89 195.23 60.29 193.15 62.20 M 90.49 67.44 C 85.75 73.77 81.83 80.72 76.94 86.94 C 74.87 86.19 73.17 84.00 70.94 84.06 C 67.88 87.51 65.54 91.55 63.09 95.45 C 65.02 96.79 66.92 98.15 68.81 99.55 C 65.01 104.83 61.37 110.24 57.75 115.65 C 56.05 117.76 55.85 121.08 58.03 122.95 C 60.88 125.45 64.23 127.29 67.32 129.48 C 70.61 131.64 73.66 134.18 77.20 135.93 C 79.56 137.08 82.45 136.01 83.84 133.88 C 87.79 128.50 91.28 122.80 95.15 117.37 C 101.00 121.26 106.82 125.19 112.62 129.16 C 114.76 130.57 116.78 132.52 119.49 132.64 C 119.78 133.25 120.35 134.47 120.63 135.08 C 105.72 150.05 90.73 164.95 75.81 179.90 C 72.42 182.75 73.63 188.71 77.70 190.26 C 80.61 191.91 83.79 189.98 85.76 187.80 C 100.92 172.51 116.27 157.40 131.37 142.05 C 151.58 155.51 171.51 169.39 191.77 182.78 C 194.57 178.89 197.24 174.91 199.85 170.89 C 180.68 157.61 161.36 144.53 141.94 131.62 C 154.00 119.14 166.49 107.07 178.75 94.78 C 181.57 92.03 182.99 88.30 184.81 84.89 C 186.36 81.72 188.58 78.74 188.94 75.12 C 183.13 78.19 176.91 80.62 171.47 84.34 C 158.50 97.06 145.77 110.04 132.88 122.85 C 131.14 124.94 128.52 122.19 126.36 122.17 L 127.21 121.32 C 119.25 115.94 111.21 110.69 103.45 105.03 C 107.67 98.73 112.06 92.54 116.23 86.21 C 117.81 84.10 118.23 80.87 116.26 78.85 C 113.51 76.22 110.13 74.39 106.89 72.45 L 107.15 72.13 C 103.75 70.23 100.74 67.71 97.33 65.82 C 95.05 64.41 91.98 65.31 90.49 67.44 M 53.11 70.02 C 51.57 71.32 50.35 73.19 50.71 75.29 C 54.05 76.85 57.94 68.72 53.11 70.02 M 201.97 70.96 C 200.31 73.19 203.49 77.97 206.16 76.16 C 206.35 73.90 204.66 70.46 201.97 70.96 M 46.26 80.17 C 44.63 81.76 44.30 84.10 43.86 86.22 C 46.64 86.24 48.51 83.90 48.70 81.28 C 48.32 80.09 47.50 79.72 46.26 80.17 M 209.26 81.29 C 206.68 82.36 209.14 85.56 210.17 87.06 C 214.52 88.65 212.10 81.43 209.26 81.29 M 41.25 91.38 C 39.35 92.32 37.39 97.88 40.98 97.31 C 42.76 96.29 44.64 90.81 41.25 91.38 M 213.25 93.18 C 213.40 95.17 213.89 97.23 215.26 98.74 C 219.82 99.45 216.69 90.31 213.25 93.18 M 37.11 103.24 C 35.54 104.08 35.56 106.62 35.52 108.29 C 38.71 112.52 41.32 101.48 37.11 103.24 M 216.77 104.85 C 217.13 107.04 217.80 109.17 218.82 111.15 C 219.37 110.83 220.49 110.18 221.05 109.86 C 220.71 108.15 220.38 106.45 220.05 104.75 C 219.23 104.77 217.59 104.82 216.77 104.85 M 33.88 115.63 C 33.81 117.66 33.75 119.69 33.72 121.73 C 37.30 121.73 36.82 118.21 37.18 115.68 C 36.08 115.66 34.98 115.64 33.88 115.63 M 219.07 117.22 C 219.28 119.11 219.37 121.04 219.97 122.86 C 223.75 123.89 222.01 119.04 222.19 116.90 C 221.41 116.98 219.85 117.14 219.07 117.22 M 33.18 128.10 C 33.32 130.06 33.21 132.11 33.95 133.97 C 37.62 134.69 35.91 129.93 36.26 127.79 C 35.49 127.87 33.95 128.02 33.18 128.10 M 220.16 129.17 C 219.53 131.25 219.61 133.44 219.61 135.59 C 220.35 135.34 221.82 134.84 222.56 134.59 C 222.81 132.48 223.45 128.63 220.16 129.17 M 35.25 140.32 C 33.14 140.97 34.46 148.07 37.70 145.88 C 37.53 144.04 38.18 139.48 35.25 140.32 M 218.88 141.70 C 218.17 143.38 217.87 145.20 217.93 147.02 C 221.65 150.48 223.49 139.86 218.88 141.70 M 37.00 151.76 C 36.98 154.15 37.01 159.82 40.89 157.86 C 41.00 155.20 40.05 152.14 37.00 151.76 M 216.12 154.01 C 214.97 155.68 214.38 157.88 215.24 159.81 C 218.83 160.73 220.51 151.83 216.12 154.01 M 41.23 164.17 C 40.86 166.13 41.55 168.51 43.22 169.67 C 47.42 171.11 44.59 162.01 41.23 164.17 M 209.81 171.39 C 213.00 171.55 215.21 167.90 213.82 165.11 C 210.47 164.85 210.25 169.04 209.81 171.39 M 46.63 174.54 C 46.45 176.96 48.77 182.76 51.66 179.69 C 51.35 177.03 49.43 174.72 46.63 174.54 M 206.26 176.25 C 204.85 177.70 202.93 179.74 204.16 181.88 C 207.28 182.93 210.53 175.62 206.26 176.25 M 195.41 191.37 C 198.44 192.45 202.02 189.22 200.75 186.16 C 197.70 185.87 196.49 189.16 195.41 191.37 M 190.40 195.40 C 188.73 196.23 186.68 197.73 187.16 199.87 C 189.94 202.49 195.50 194.49 190.40 195.40 M 124.19 199.00 C 123.85 200.56 124.17 202.41 123.11 203.74 C 121.80 202.85 120.63 201.74 119.22 201.02 C 116.99 202.01 115.07 203.56 113.14 205.02 C 113.76 206.27 114.39 207.52 115.01 208.78 C 114.09 208.39 112.25 207.61 111.33 207.21 C 110.07 209.40 108.89 211.63 107.76 213.89 C 107.94 214.26 108.30 214.99 108.48 215.36 C 106.24 217.58 107.41 220.97 107.18 223.77 C 108.59 223.90 109.99 224.02 111.40 224.15 C 110.30 224.99 109.20 225.82 108.10 226.66 C 109.31 229.02 110.65 231.31 112.06 233.56 C 113.28 233.08 114.50 232.61 115.73 232.14 C 115.35 233.02 114.61 234.79 114.24 235.67 C 116.46 237.12 118.74 238.47 121.08 239.73 C 121.94 238.68 122.80 237.65 123.66 236.62 C 123.86 237.96 124.05 239.30 124.25 240.65 C 126.75 240.63 129.26 240.62 131.76 240.62 C 131.95 239.25 132.14 237.88 132.34 236.51 C 133.88 237.13 135.27 238.02 136.56 239.06 C 138.68 237.68 140.76 236.25 142.82 234.79 C 142.25 233.59 141.69 232.40 141.13 231.21 C 142.09 231.45 144.02 231.94 144.98 232.19 C 148.06 227.35 149.25 221.64 148.87 215.96 C 147.51 215.86 146.14 215.77 144.78 215.68 C 145.76 214.71 146.78 213.77 147.67 212.73 C 146.72 210.36 145.27 208.24 143.95 206.07 C 142.62 206.68 141.29 207.30 139.96 207.91 C 140.57 206.60 141.18 205.29 141.79 203.99 C 139.54 202.49 137.18 201.14 134.74 199.96 C 133.90 201.17 133.06 202.38 132.21 203.58 C 132.11 202.05 132.01 200.53 131.92 199.00 C 129.34 199.00 126.77 199.00 124.19 199.00 M 71.85 201.78 C 72.20 203.15 71.93 204.96 73.41 205.75 C 74.68 206.81 77.29 208.06 77.78 205.58 C 76.97 203.06 74.07 202.43 71.85 201.78 M 180.35 203.31 C 178.61 203.94 175.54 206.48 178.25 207.92 C 180.58 207.51 183.25 205.85 182.90 203.13 C 182.26 203.18 180.99 203.27 180.35 203.31 M 81.90 210.35 C 83.73 211.65 85.65 213.86 88.14 213.02 C 89.17 210.21 85.69 209.49 83.99 208.30 C 83.47 208.81 82.42 209.84 81.90 210.35 M 93.89 213.70 C 93.95 214.50 94.07 216.11 94.13 216.91 C 95.42 217.23 96.71 217.58 98.03 217.81 C 99.70 218.55 99.67 216.10 100.17 215.19 C 98.09 214.66 95.99 214.16 93.89 213.70 M 158.44 214.47 C 156.51 214.66 154.00 215.77 154.88 218.20 C 156.94 218.54 159.03 217.93 160.74 216.77 C 161.47 215.19 159.92 213.94 158.44 214.47 Z" />
</g>
<g id="#454545ff">
<path fill="#454545" opacity="1.00" d=" M 125.38 15.37 C 127.17 15.37 128.97 15.36 130.77 15.36 C 130.92 16.72 131.08 18.08 131.24 19.45 C 132.23 18.44 133.21 17.43 134.19 16.42 C 135.74 17.32 137.30 18.24 138.86 19.15 C 138.44 20.41 138.02 21.68 137.61 22.94 C 138.53 22.59 140.37 21.90 141.29 21.55 C 142.20 23.16 143.10 24.78 144.00 26.40 C 143.07 27.27 142.15 28.14 141.23 29.01 C 142.15 29.11 144.00 29.29 144.92 29.38 C 144.95 31.65 145.41 34.13 143.88 36.05 C 143.74 38.14 143.94 41.73 140.97 41.77 C 138.51 41.79 137.32 43.94 136.10 45.71 C 137.13 49.76 136.27 53.96 136.81 58.07 C 135.66 59.15 134.57 60.34 133.20 61.16 C 130.21 61.72 127.12 61.54 124.09 61.40 C 121.86 61.51 120.59 59.46 119.17 58.09 C 119.57 53.95 119.18 49.78 119.69 45.64 C 118.92 44.53 118.15 43.42 117.37 42.32 C 116.60 42.50 115.06 42.87 114.28 43.05 C 113.54 41.52 112.79 40.00 112.05 38.47 C 112.83 37.64 113.61 36.81 114.40 35.97 C 113.28 35.70 112.17 35.38 111.07 35.02 C 110.57 30.70 112.39 26.56 113.72 22.54 C 114.73 22.78 116.76 23.26 117.77 23.50 C 117.23 22.31 116.69 21.12 116.14 19.92 C 117.65 18.94 119.16 17.97 120.67 17.00 C 121.64 17.84 122.61 18.70 123.66 19.44 C 125.42 18.95 124.82 16.71 125.38 15.37 M 125.95 16.24 C 125.88 17.17 125.74 19.01 125.66 19.94 C 123.53 20.57 121.81 19.76 120.56 18.00 C 119.39 18.75 118.22 19.50 117.06 20.25 C 117.71 21.08 118.36 21.92 119.01 22.75 C 118.01 24.87 116.00 24.44 114.11 23.85 C 113.65 24.91 113.18 25.98 112.72 27.05 C 113.67 28.00 114.62 28.95 115.55 29.93 C 114.65 30.01 112.83 30.18 111.93 30.26 C 111.92 31.70 111.92 33.14 111.92 34.57 C 112.61 34.58 113.99 34.59 114.69 34.59 C 114.83 35.24 115.13 36.53 115.28 37.18 C 114.68 37.54 113.50 38.26 112.91 38.62 C 113.64 39.82 114.37 41.03 115.11 42.23 C 115.94 41.86 116.77 41.50 117.60 41.14 C 118.65 42.52 119.72 43.89 120.79 45.26 C 125.58 45.15 130.38 45.16 135.17 45.25 C 137.03 43.24 138.46 39.27 141.86 41.08 C 142.32 39.91 142.79 38.75 143.26 37.58 C 142.66 37.12 141.48 36.20 140.89 35.74 C 141.26 34.34 142.99 34.74 144.04 34.29 C 144.05 32.92 144.05 31.56 144.06 30.19 C 143.22 30.18 141.55 30.15 140.71 30.13 C 140.53 28.33 141.51 27.01 142.88 25.96 C 142.21 24.78 141.54 23.61 140.87 22.43 C 140.29 22.82 139.13 23.59 138.55 23.98 C 137.82 23.59 137.09 23.20 136.36 22.80 C 136.86 21.72 137.38 20.64 137.90 19.56 C 136.74 18.81 135.59 18.06 134.44 17.30 C 133.82 18.21 133.20 19.12 132.59 20.02 C 132.02 19.96 130.87 19.83 130.29 19.77 C 130.23 18.88 130.10 17.12 130.04 16.24 C 128.67 16.24 127.31 16.24 125.95 16.24 M 120.48 45.51 L 120.72 47.20 L 120.01 47.19 C 120.01 47.88 120.02 49.25 120.02 49.93 L 121.16 49.84 L 119.86 51.69 C 125.08 53.61 130.69 52.98 135.98 51.75 L 134.47 49.79 C 136.30 50.90 136.90 46.87 134.99 47.29 L 135.15 45.52 C 130.26 45.45 125.37 45.45 120.48 45.51 M 123.03 60.59 C 127.52 60.71 133.32 61.95 135.98 57.30 C 135.86 56.52 135.62 54.95 135.49 54.16 C 131.20 53.16 126.75 52.67 122.35 53.29 C 119.09 55.00 119.87 59.29 123.03 60.59 Z" />
<path fill="#454545" opacity="1.00" d=" M 90.49 67.44 C 91.98 65.31 95.05 64.41 97.33 65.82 C 100.74 67.71 103.75 70.23 107.15 72.13 L 106.89 72.45 C 96.91 85.17 88.63 99.13 79.30 112.32 C 75.13 117.91 71.66 124.00 67.32 129.48 C 64.23 127.29 60.88 125.45 58.03 122.95 C 55.85 121.08 56.05 117.76 57.75 115.65 C 61.37 110.24 65.01 104.83 68.81 99.55 C 66.92 98.15 65.02 96.79 63.09 95.45 C 65.54 91.55 67.88 87.51 70.94 84.06 C 73.17 84.00 74.87 86.19 76.94 86.94 C 81.83 80.72 85.75 73.77 90.49 67.44 M 71.32 84.83 C 70.13 86.74 68.92 88.64 67.77 90.57 L 67.39 90.38 C 66.43 91.95 65.45 93.51 64.49 95.08 C 66.28 96.38 68.08 97.66 69.89 98.94 C 71.15 97.10 72.41 95.27 73.66 93.43 C 74.76 91.81 75.87 90.20 76.99 88.60 C 75.10 87.34 73.22 86.07 71.32 84.83 Z" />
<path fill="#454545" opacity="1.00" d=" M 188.94 75.12 C 188.58 78.74 186.36 81.72 184.81 84.89 C 182.99 88.30 181.57 92.03 178.75 94.78 C 166.49 107.07 154.00 119.14 141.94 131.62 C 161.36 144.53 180.68 157.61 199.85 170.89 C 197.24 174.91 194.57 178.89 191.77 182.78 C 171.51 169.39 151.58 155.51 131.37 142.05 C 116.27 157.40 100.92 172.51 85.76 187.80 C 83.79 189.98 80.61 191.91 77.70 190.26 C 73.63 188.71 72.42 182.75 75.81 179.90 C 90.73 164.95 105.72 150.05 120.63 135.08 C 120.35 134.47 119.78 133.25 119.49 132.64 C 120.48 133.34 121.46 134.06 122.44 134.78 C 109.23 148.06 96.03 161.35 82.74 174.55 C 81.82 175.45 80.89 176.34 79.97 177.23 C 78.34 178.88 76.58 180.45 75.37 182.45 C 73.57 185.96 77.28 190.27 80.95 189.79 C 83.62 188.82 85.45 186.48 87.43 184.56 C 88.37 183.58 89.31 182.60 90.25 181.64 C 103.89 167.98 117.55 154.35 131.21 140.71 C 151.49 154.00 171.29 168.03 191.56 181.36 C 192.69 179.63 193.84 177.91 194.98 176.19 C 196.11 174.49 197.25 172.80 198.38 171.10 C 179.14 157.89 159.70 144.94 140.51 131.65 C 152.75 119.16 165.20 106.88 177.57 94.53 C 178.45 93.60 179.31 92.64 179.97 91.54 C 182.18 87.24 185.53 83.15 185.72 78.14 C 181.35 80.06 177.01 82.10 172.93 84.58 C 159.07 98.16 145.43 111.96 131.66 125.64 C 129.88 124.50 128.10 123.36 126.36 122.17 C 128.52 122.19 131.14 124.94 132.88 122.85 C 145.77 110.04 158.50 97.06 171.47 84.34 C 176.91 80.62 183.13 78.19 188.94 75.12 Z" />
<path fill="#454545" opacity="1.00" d=" M 124.19 199.00 C 126.77 199.00 129.34 199.00 131.92 199.00 C 132.01 200.53 132.11 202.05 132.21 203.58 C 133.06 202.38 133.90 201.17 134.74 199.96 C 137.18 201.14 139.54 202.49 141.79 203.99 C 141.18 205.29 140.57 206.60 139.96 207.91 C 141.29 207.30 142.62 206.68 143.95 206.07 C 145.27 208.24 146.72 210.36 147.67 212.73 C 146.78 213.77 145.76 214.71 144.78 215.68 C 146.14 215.77 147.51 215.86 148.87 215.96 C 149.25 221.64 148.06 227.35 144.98 232.19 C 144.02 231.94 142.09 231.45 141.13 231.21 C 141.69 232.40 142.25 233.59 142.82 234.79 C 140.76 236.25 138.68 237.68 136.56 239.06 C 135.27 238.02 133.88 237.13 132.34 236.51 C 132.14 237.88 131.95 239.25 131.76 240.62 C 129.26 240.62 126.75 240.63 124.25 240.65 C 124.05 239.30 123.86 237.96 123.66 236.62 C 122.80 237.65 121.94 238.68 121.08 239.73 C 118.74 238.47 116.46 237.12 114.24 235.67 C 114.61 234.79 115.35 233.02 115.73 232.14 C 114.50 232.61 113.28 233.08 112.06 233.56 C 110.65 231.31 109.31 229.02 108.10 226.66 C 109.20 225.82 110.30 224.99 111.40 224.15 C 109.99 224.02 108.59 223.90 107.18 223.77 C 107.41 220.97 106.24 217.58 108.48 215.36 C 108.30 214.99 107.94 214.26 107.76 213.89 C 108.89 211.63 110.07 209.40 111.33 207.21 C 112.25 207.61 114.09 208.39 115.01 208.78 C 114.39 207.52 113.76 206.27 113.14 205.02 C 115.07 203.56 116.99 202.01 119.22 201.02 C 120.63 201.74 121.80 202.85 123.11 203.74 C 124.17 202.41 123.85 200.56 124.19 199.00 M 125.33 200.32 C 125.14 201.70 124.94 203.09 124.74 204.48 C 123.56 204.60 122.37 204.72 121.19 204.85 C 120.66 203.93 120.13 203.01 119.60 202.09 C 117.98 203.10 116.36 204.12 114.75 205.13 C 115.39 206.36 116.04 207.59 116.68 208.82 C 116.26 209.10 115.41 209.68 114.99 209.97 C 113.79 209.66 112.60 209.36 111.40 209.06 C 110.65 210.68 109.89 212.30 109.14 213.92 C 110.41 214.66 111.67 215.40 112.93 216.16 C 111.40 216.58 109.86 216.98 108.33 217.38 C 108.35 219.18 108.36 220.99 108.37 222.80 C 109.10 222.74 110.57 222.62 111.30 222.55 C 111.67 223.23 112.40 224.58 112.77 225.25 C 111.77 225.85 110.76 226.45 109.76 227.06 C 110.63 228.70 111.51 230.34 112.39 231.98 C 113.37 231.51 114.36 231.03 115.35 230.56 C 115.71 230.93 116.44 231.67 116.80 232.03 C 116.62 233.22 116.39 234.41 116.33 235.61 C 117.78 236.60 119.37 237.36 120.93 238.17 C 121.24 237.45 121.87 236.00 122.19 235.28 C 124.28 235.74 125.41 237.16 125.49 239.32 C 127.15 239.41 128.80 239.50 130.46 239.61 C 130.72 238.44 130.98 237.28 131.24 236.12 C 132.44 235.80 133.65 235.48 134.86 235.17 C 135.44 236.00 136.03 236.84 136.61 237.68 C 137.98 236.72 139.34 235.76 140.71 234.80 C 140.45 233.02 140.34 231.22 140.64 229.44 C 141.92 229.90 143.20 230.38 144.48 230.86 C 145.24 229.24 145.99 227.61 146.75 225.99 C 145.63 225.02 144.52 224.05 143.42 223.06 C 144.82 222.90 146.22 222.76 147.63 222.63 C 147.63 220.82 147.63 219.01 147.65 217.20 C 146.27 217.04 144.89 216.88 143.51 216.72 C 143.17 214.69 144.41 213.44 146.02 212.49 C 145.33 211.03 144.63 209.58 143.93 208.14 C 142.07 208.52 140.18 208.74 138.30 208.48 C 138.88 207.03 139.47 205.59 140.06 204.15 C 138.48 203.32 136.91 202.48 135.33 201.64 C 134.27 203.31 133.16 205.15 130.85 204.52 C 130.83 203.13 130.81 201.73 130.80 200.34 C 128.97 200.34 127.15 200.33 125.33 200.32 Z" />
</g>
<g id="#ffca28ff">
<path fill="#ffca28" opacity="1.00" d=" M 125.95 16.24 C 127.31 16.24 128.67 16.24 130.04 16.24 C 130.10 17.12 130.23 18.88 130.29 19.77 C 130.87 19.83 132.02 19.96 132.59 20.02 C 133.20 19.12 133.82 18.21 134.44 17.30 C 135.59 18.06 136.74 18.81 137.90 19.56 C 137.38 20.64 136.86 21.72 136.36 22.80 C 137.09 23.20 137.82 23.59 138.55 23.98 C 139.13 23.59 140.29 22.82 140.87 22.43 C 141.54 23.61 142.21 24.78 142.88 25.96 C 141.51 27.01 140.53 28.33 140.71 30.13 C 141.55 30.15 143.22 30.18 144.06 30.19 C 144.05 31.56 144.05 32.92 144.04 34.29 C 142.99 34.74 141.26 34.34 140.89 35.74 C 141.48 36.20 142.66 37.12 143.26 37.58 C 142.79 38.75 142.32 39.91 141.86 41.08 C 138.46 39.27 137.03 43.24 135.17 45.25 C 130.38 45.16 125.58 45.15 120.79 45.26 C 119.72 43.89 118.65 42.52 117.60 41.14 C 116.77 41.50 115.94 41.86 115.11 42.23 C 114.37 41.03 113.64 39.82 112.91 38.62 C 113.50 38.26 114.68 37.54 115.28 37.18 C 115.13 36.53 114.83 35.24 114.69 34.59 C 113.99 34.59 112.61 34.58 111.92 34.57 C 111.92 33.14 111.92 31.70 111.93 30.26 C 112.83 30.18 114.65 30.01 115.55 29.93 C 114.62 28.95 113.67 28.00 112.72 27.05 C 113.18 25.98 113.65 24.91 114.11 23.85 C 116.00 24.44 118.01 24.87 119.01 22.75 C 118.36 21.92 117.71 21.08 117.06 20.25 C 118.22 19.50 119.39 18.75 120.56 18.00 C 121.81 19.76 123.53 20.57 125.66 19.94 C 125.74 19.01 125.88 17.17 125.95 16.24 M 125.31 27.42 C 122.46 28.94 121.40 33.02 123.34 35.67 C 125.53 39.57 132.26 38.56 133.39 34.25 C 135.26 29.66 129.58 24.91 125.31 27.42 Z" />
</g>
<g id="#ffb74dff">
<path fill="#ffb74d" opacity="1.00" d=" M 125.31 27.42 C 129.58 24.91 135.26 29.66 133.39 34.25 C 132.26 38.56 125.53 39.57 123.34 35.67 C 121.40 33.02 122.46 28.94 125.31 27.42 Z" />
</g>
<g id="#4e5a62ff">
<path fill="#4e5a62" opacity="1.00" d=" M 103.37 36.49 C 104.87 36.00 106.39 35.98 106.55 37.96 C 105.28 39.71 103.02 40.09 101.01 39.95 C 99.01 38.12 101.52 36.61 103.37 36.49 Z" />
<path fill="#4e5a62" opacity="1.00" d=" M 88.89 44.18 C 87.67 40.71 92.27 40.56 94.39 39.65 C 95.51 42.99 91.62 44.57 88.89 44.18 Z" />
<path fill="#4e5a62" opacity="1.00" d=" M 33.88 115.63 C 34.98 115.64 36.08 115.66 37.18 115.68 C 36.82 118.21 37.30 121.73 33.72 121.73 C 33.75 119.69 33.81 117.66 33.88 115.63 Z" />
<path fill="#4e5a62" opacity="1.00" d=" M 219.07 117.22 C 219.85 117.14 221.41 116.98 222.19 116.90 C 222.01 119.04 223.75 123.89 219.97 122.86 C 219.37 121.04 219.28 119.11 219.07 117.22 Z" />
<path fill="#4e5a62" opacity="1.00" d=" M 33.18 128.10 C 33.95 128.02 35.49 127.87 36.26 127.79 C 35.91 129.93 37.62 134.69 33.95 133.97 C 33.21 132.11 33.32 130.06 33.18 128.10 Z" />
<path fill="#4e5a62" opacity="1.00" d=" M 220.16 129.17 C 223.45 128.63 222.81 132.48 222.56 134.59 C 221.82 134.84 220.35 135.34 219.61 135.59 C 219.61 133.44 219.53 131.25 220.16 129.17 Z" />
<path fill="#4e5a62" opacity="1.00" d=" M 35.25 140.32 C 38.18 139.48 37.53 144.04 37.70 145.88 C 34.46 148.07 33.14 140.97 35.25 140.32 Z" />
</g>
<g id="#4e5f67ff">
<path fill="#4e5f67" opacity="1.00" d=" M 151.05 36.90 C 153.70 36.13 157.36 37.14 157.52 40.40 C 155.16 40.12 150.24 40.67 151.05 36.90 Z" />
</g>
<g id="#4e5e66ff">
<path fill="#4e5e66" opacity="1.00" d=" M 162.93 40.83 C 165.39 40.19 170.20 41.98 168.12 45.11 C 165.94 44.57 161.92 43.98 162.93 40.83 Z" />
</g>
<g id="#4e6068ff">
<path fill="#4e6068" opacity="1.00" d=" M 81.39 45.46 C 82.33 44.89 84.96 47.07 83.05 47.80 C 81.81 49.24 79.95 50.34 77.98 50.04 C 76.59 47.51 79.60 46.38 81.39 45.46 Z" />
<path fill="#4e6068" opacity="1.00" d=" M 41.25 91.38 C 44.64 90.81 42.76 96.29 40.98 97.31 C 37.39 97.88 39.35 92.32 41.25 91.38 Z" />
</g>
<g id="#bdbfc1ff">
<path fill="#bdbfc1" opacity="1.00" d=" M 120.48 45.51 C 125.37 45.45 130.26 45.45 135.15 45.52 L 134.99 47.29 C 130.24 47.12 125.48 47.32 120.72 47.20 L 120.48 45.51 Z" />
</g>
<g id="#a9abaeff">
<path fill="#a9abae" opacity="1.00" d=" M 120.01 47.19 L 120.72 47.20 C 125.48 47.32 130.24 47.12 134.99 47.29 C 136.90 46.87 136.30 50.90 134.47 49.79 C 130.03 49.59 125.58 49.43 121.16 49.84 L 120.02 49.93 C 120.02 49.25 120.01 47.88 120.01 47.19 Z" />
</g>
<g id="#babcbeff">
<path fill="#babcbe" opacity="1.00" d=" M 121.16 49.84 C 125.58 49.43 130.03 49.59 134.47 49.79 L 135.98 51.75 C 130.69 52.98 125.08 53.61 119.86 51.69 L 121.16 49.84 Z" />
</g>
<g id="#4e626aff">
<path fill="#4e626a" opacity="1.00" d=" M 71.23 52.36 C 72.73 51.99 73.52 53.44 72.93 54.75 C 71.59 56.05 69.81 57.77 67.77 57.12 C 66.77 54.69 69.34 53.16 71.23 52.36 Z" />
<path fill="#4e626a" opacity="1.00" d=" M 81.90 210.35 C 82.42 209.84 83.47 208.81 83.99 208.30 C 85.69 209.49 89.17 210.21 88.14 213.02 C 85.65 213.86 83.73 211.65 81.90 210.35 Z" />
</g>
<g id="#b7babcff">
<path fill="#b7babc" opacity="1.00" d=" M 123.03 60.59 C 119.87 59.29 119.09 55.00 122.35 53.29 C 126.75 52.67 131.20 53.16 135.49 54.16 C 135.62 54.95 135.86 56.52 135.98 57.30 C 133.32 61.95 127.52 60.71 123.03 60.59 Z" />
</g>
<g id="#4f6870ff">
<path fill="#4f6870" opacity="1.00" d=" M 58.33 64.18 C 59.04 61.99 61.34 61.00 63.06 59.73 C 64.54 62.15 62.84 64.55 60.68 65.75 C 59.35 66.40 58.44 65.47 58.33 64.18 Z" />
<path fill="#4f6870" opacity="1.00" d=" M 213.25 93.18 C 216.69 90.31 219.82 99.45 215.26 98.74 C 213.89 97.23 213.40 95.17 213.25 93.18 Z" />
</g>
<g id="#4e666eff">
<path fill="#4e666e" opacity="1.00" d=" M 193.15 62.20 C 195.23 60.29 197.42 62.89 198.39 64.70 C 199.38 65.98 197.61 67.48 196.30 66.80 C 194.79 65.70 193.11 64.23 193.15 62.20 Z" />
</g>
<g id="#4e5d65ff">
<path fill="#4e5d65" opacity="1.00" d=" M 53.11 70.02 C 57.94 68.72 54.05 76.85 50.71 75.29 C 50.35 73.19 51.57 71.32 53.11 70.02 Z" />
</g>
<g id="#4f646cff">
<path fill="#4f646c" opacity="1.00" d=" M 201.97 70.96 C 204.66 70.46 206.35 73.90 206.16 76.16 C 203.49 77.97 200.31 73.19 201.97 70.96 Z" />
</g>
<g id="#4d4d4dff">
<path fill="#4d4d4d" opacity="1.00" d=" M 79.30 112.32 C 88.63 99.13 96.91 85.17 106.89 72.45 C 110.13 74.39 113.51 76.22 116.26 78.85 C 118.23 80.87 117.81 84.10 116.23 86.21 C 112.06 92.54 107.67 98.73 103.45 105.03 C 111.21 110.69 119.25 115.94 127.21 121.32 L 126.36 122.17 C 118.16 116.73 110.08 111.11 101.90 105.64 C 100.78 107.27 99.65 108.91 98.54 110.55 C 97.34 112.31 96.14 114.08 94.95 115.85 C 103.08 121.52 111.41 126.89 119.49 132.64 C 116.78 132.52 114.76 130.57 112.62 129.16 C 106.82 125.19 101.00 121.26 95.15 117.37 C 91.28 122.80 87.79 128.50 83.84 133.88 C 82.45 136.01 79.56 137.08 77.20 135.93 C 73.66 134.18 70.61 131.64 67.32 129.48 C 71.66 124.00 75.13 117.91 79.30 112.32 Z" />
</g>
<g id="#ffcc99ff">
<path fill="#ffcc99" opacity="1.00" d=" M 172.93 84.58 C 177.01 82.10 181.35 80.06 185.72 78.14 C 185.53 83.15 182.18 87.24 179.97 91.54 C 180.00 90.62 180.06 88.79 180.09 87.87 C 179.30 88.03 177.74 88.36 176.96 88.52 C 176.65 87.18 176.33 85.85 176.00 84.52 C 175.23 84.53 173.70 84.56 172.93 84.58 Z" />
</g>
<g id="#4e656eff">
<path fill="#4e656e" opacity="1.00" d=" M 46.26 80.17 C 47.50 79.72 48.32 80.09 48.70 81.28 C 48.51 83.90 46.64 86.24 43.86 86.22 C 44.30 84.10 44.63 81.76 46.26 80.17 Z" />
</g>
<g id="#4e6169ff">
<path fill="#4e6169" opacity="1.00" d=" M 209.26 81.29 C 212.10 81.43 214.52 88.65 210.17 87.06 C 209.14 85.56 206.68 82.36 209.26 81.29 Z" />
<path fill="#4e6169" opacity="1.00" d=" M 37.11 103.24 C 41.32 101.48 38.71 112.52 35.52 108.29 C 35.56 106.62 35.54 104.08 37.11 103.24 Z" />
<path fill="#4e6169" opacity="1.00" d=" M 218.88 141.70 C 223.49 139.86 221.65 150.48 217.93 147.02 C 217.87 145.20 218.17 143.38 218.88 141.70 Z" />
<path fill="#4e6169" opacity="1.00" d=" M 195.41 191.37 C 196.49 189.16 197.70 185.87 200.75 186.16 C 202.02 189.22 198.44 192.45 195.41 191.37 Z" />
</g>
<g id="#fed267ff">
<path fill="#fed267" opacity="1.00" d=" M 71.32 84.83 C 73.22 86.07 75.10 87.34 76.99 88.60 C 75.87 90.20 74.76 91.81 73.66 93.43 C 71.69 92.47 69.73 91.52 67.77 90.57 C 68.92 88.64 70.13 86.74 71.32 84.83 Z" />
<path fill="#fed267" opacity="1.00" d=" M 98.54 110.55 C 99.65 108.91 100.78 107.27 101.90 105.64 C 110.08 111.11 118.16 116.73 126.36 122.17 C 128.10 123.36 129.88 124.50 131.66 125.64 C 133.68 126.93 135.68 128.24 137.64 129.61 C 138.60 130.28 139.56 130.97 140.51 131.65 C 159.70 144.94 179.14 157.89 198.38 171.10 C 197.25 172.80 196.11 174.49 194.98 176.19 C 165.02 156.12 135.34 135.65 105.43 115.51 C 103.11 113.89 100.83 112.21 98.54 110.55 Z" />
</g>
<g id="#f2c200ff">
<path fill="#f2c200" opacity="1.00" d=" M 131.66 125.64 C 145.43 111.96 159.07 98.16 172.93 84.58 C 173.70 84.56 175.23 84.53 176.00 84.52 C 176.33 85.85 176.65 87.18 176.96 88.52 C 175.53 91.99 172.44 94.29 169.87 96.87 C 160.85 105.85 151.91 114.92 142.83 123.84 C 141.00 125.67 139.31 127.63 137.64 129.61 C 135.68 128.24 133.68 126.93 131.66 125.64 Z" />
</g>
<g id="#e6b800ff">
<path fill="#e6b800" opacity="1.00" d=" M 176.96 88.52 C 177.74 88.36 179.30 88.03 180.09 87.87 C 180.06 88.79 180.00 90.62 179.97 91.54 C 179.31 92.64 178.45 93.60 177.57 94.53 C 165.20 106.88 152.75 119.16 140.51 131.65 C 139.56 130.97 138.60 130.28 137.64 129.61 C 139.31 127.63 141.00 125.67 142.83 123.84 C 151.91 114.92 160.85 105.85 169.87 96.87 C 172.44 94.29 175.53 91.99 176.96 88.52 Z" />
<path fill="#e6b800" opacity="1.00" d=" M 122.44 134.78 C 123.40 135.49 124.35 136.19 125.32 136.88 C 112.11 150.36 98.66 163.60 85.37 177.01 C 84.50 176.19 83.62 175.37 82.74 174.55 C 96.03 161.35 109.23 148.06 122.44 134.78 Z" />
<path fill="#e6b800" opacity="1.00" d=" M 87.67 179.17 C 101.00 165.56 114.41 152.01 128.12 138.78 C 129.14 139.43 130.17 140.07 131.21 140.71 C 117.55 154.35 103.89 167.98 90.25 181.64 C 89.39 180.81 88.53 179.99 87.67 179.17 Z" />
</g>
<g id="#e5bd5dff">
<path fill="#e5bd5d" opacity="1.00" d=" M 67.39 90.38 L 67.77 90.57 C 69.73 91.52 71.69 92.47 73.66 93.43 C 72.41 95.27 71.15 97.10 69.89 98.94 C 68.08 97.66 66.28 96.38 64.49 95.08 C 65.45 93.51 66.43 91.95 67.39 90.38 Z" />
<path fill="#e5bd5d" opacity="1.00" d=" M 94.95 115.85 C 96.14 114.08 97.34 112.31 98.54 110.55 C 100.83 112.21 103.11 113.89 105.43 115.51 C 135.34 135.65 165.02 156.12 194.98 176.19 C 193.84 177.91 192.69 179.63 191.56 181.36 C 171.29 168.03 151.49 154.00 131.21 140.71 C 130.17 140.07 129.14 139.43 128.12 138.78 C 127.17 138.16 126.24 137.53 125.32 136.88 C 124.35 136.19 123.40 135.49 122.44 134.78 C 121.46 134.06 120.48 133.34 119.49 132.64 C 111.41 126.89 103.08 121.52 94.95 115.85 Z" />
</g>
<g id="#4e636cff">
<path fill="#4e636c" opacity="1.00" d=" M 216.77 104.85 C 217.59 104.82 219.23 104.77 220.05 104.75 C 220.38 106.45 220.71 108.15 221.05 109.86 C 220.49 110.18 219.37 110.83 218.82 111.15 C 217.80 109.17 217.13 107.04 216.77 104.85 Z" />
<path fill="#4e636c" opacity="1.00" d=" M 206.26 176.25 C 210.53 175.62 207.28 182.93 204.16 181.88 C 202.93 179.74 204.85 177.70 206.26 176.25 Z" />
</g>
<g id="#ffcc00ff">
<path fill="#ffcc00" opacity="1.00" d=" M 125.32 136.88 C 126.24 137.53 127.17 138.16 128.12 138.78 C 114.41 152.01 101.00 165.56 87.67 179.17 C 86.90 178.45 86.14 177.73 85.37 177.01 C 98.66 163.60 112.11 150.36 125.32 136.88 Z" />
</g>
<g id="#4e646cff">
<path fill="#4e646c" opacity="1.00" d=" M 37.00 151.76 C 40.05 152.14 41.00 155.20 40.89 157.86 C 37.01 159.82 36.98 154.15 37.00 151.76 Z" />
<path fill="#4e646c" opacity="1.00" d=" M 41.23 164.17 C 44.59 162.01 47.42 171.11 43.22 169.67 C 41.55 168.51 40.86 166.13 41.23 164.17 Z" />
</g>
<g id="#4e646dff">
<path fill="#4e646d" opacity="1.00" d=" M 216.12 154.01 C 220.51 151.83 218.83 160.73 215.24 159.81 C 214.38 157.88 214.97 155.68 216.12 154.01 Z" />
</g>
<g id="#4e636bff">
<path fill="#4e636b" opacity="1.00" d=" M 209.81 171.39 C 210.25 169.04 210.47 164.85 213.82 165.11 C 215.21 167.90 213.00 171.55 209.81 171.39 Z" />
<path fill="#4e636b" opacity="1.00" d=" M 190.40 195.40 C 195.50 194.49 189.94 202.49 187.16 199.87 C 186.68 197.73 188.73 196.23 190.40 195.40 Z" />
<path fill="#4e636b" opacity="1.00" d=" M 93.89 213.70 C 95.99 214.16 98.09 214.66 100.17 215.19 C 99.67 216.10 99.70 218.55 98.03 217.81 C 96.71 217.58 95.42 217.23 94.13 216.91 C 94.07 216.11 93.95 214.50 93.89 213.70 Z" />
<path fill="#4e636b" opacity="1.00" d=" M 158.44 214.47 C 159.92 213.94 161.47 215.19 160.74 216.77 C 159.03 217.93 156.94 218.54 154.88 218.20 C 154.00 215.77 156.51 214.66 158.44 214.47 Z" />
</g>
<g id="#4f676fff">
<path fill="#4f676f" opacity="1.00" d=" M 46.63 174.54 C 49.43 174.72 51.35 177.03 51.66 179.69 C 48.77 182.76 46.45 176.96 46.63 174.54 Z" />
</g>
<g id="#cfa600ff">
<path fill="#cfa600" opacity="1.00" d=" M 79.97 177.23 C 80.89 176.34 81.82 175.45 82.74 174.55 C 83.62 175.37 84.50 176.19 85.37 177.01 C 86.14 177.73 86.90 178.45 87.67 179.17 C 88.53 179.99 89.39 180.81 90.25 181.64 C 89.31 182.60 88.37 183.58 87.43 184.56 C 84.97 182.09 82.49 179.64 79.97 177.23 Z" />
</g>
<g id="#cc3300ff">
<path fill="#cc3300" opacity="1.00" d=" M 75.37 182.45 C 76.58 180.45 78.34 178.88 79.97 177.23 C 82.49 179.64 84.97 182.09 87.43 184.56 C 85.45 186.48 83.62 188.82 80.95 189.79 C 77.28 190.27 73.57 185.96 75.37 182.45 Z" />
</g>
<g id="#b3b3b3ff">
<path fill="#b3b3b3" opacity="1.00" d=" M 125.33 200.32 C 127.15 200.33 128.97 200.34 130.80 200.34 C 130.81 201.73 130.83 203.13 130.85 204.52 C 133.16 205.15 134.27 203.31 135.33 201.64 C 136.91 202.48 138.48 203.32 140.06 204.15 C 139.47 205.59 138.88 207.03 138.30 208.48 C 140.18 208.74 142.07 208.52 143.93 208.14 C 144.63 209.58 145.33 211.03 146.02 212.49 C 144.41 213.44 143.17 214.69 143.51 216.72 C 144.89 216.88 146.27 217.04 147.65 217.20 C 147.63 219.01 147.63 220.82 147.63 222.63 C 146.22 222.76 144.82 222.90 143.42 223.06 C 144.52 224.05 145.63 225.02 146.75 225.99 C 145.99 227.61 145.24 229.24 144.48 230.86 C 143.20 230.38 141.92 229.90 140.64 229.44 C 140.34 231.22 140.45 233.02 140.71 234.80 C 139.34 235.76 137.98 236.72 136.61 237.68 C 136.03 236.84 135.44 236.00 134.86 235.17 C 133.65 235.48 132.44 235.80 131.24 236.12 C 130.98 237.28 130.72 238.44 130.46 239.61 C 128.80 239.50 127.15 239.41 125.49 239.32 C 125.41 237.16 124.28 235.74 122.19 235.28 C 121.87 236.00 121.24 237.45 120.93 238.17 C 119.37 237.36 117.78 236.60 116.33 235.61 C 116.39 234.41 116.62 233.22 116.80 232.03 C 116.44 231.67 115.71 230.93 115.35 230.56 C 114.36 231.03 113.37 231.51 112.39 231.98 C 111.51 230.34 110.63 228.70 109.76 227.06 C 110.76 226.45 111.77 225.85 112.77 225.25 C 112.40 224.58 111.67 223.23 111.30 222.55 C 110.57 222.62 109.10 222.74 108.37 222.80 C 108.36 220.99 108.35 219.18 108.33 217.38 C 109.86 216.98 111.40 216.58 112.93 216.16 C 111.67 215.40 110.41 214.66 109.14 213.92 C 109.89 212.30 110.65 210.68 111.40 209.06 C 112.60 209.36 113.79 209.66 114.99 209.97 C 115.41 209.68 116.26 209.10 116.68 208.82 C 116.04 207.59 115.39 206.36 114.75 205.13 C 116.36 204.12 117.98 203.10 119.60 202.09 C 120.13 203.01 120.66 203.93 121.19 204.85 C 122.37 204.72 123.56 204.60 124.74 204.48 C 124.94 203.09 125.14 201.70 125.33 200.32 M 126.29 213.32 C 120.95 214.43 119.62 221.99 123.79 225.22 C 127.40 228.25 133.44 226.14 134.58 221.65 C 136.21 216.92 131.01 211.85 126.29 213.32 Z" />
</g>
<g id="#4e656dff">
<path fill="#4e656d" opacity="1.00" d=" M 71.85 201.78 C 74.07 202.43 76.97 203.06 77.78 205.58 C 77.29 208.06 74.68 206.81 73.41 205.75 C 71.93 204.96 72.20 203.15 71.85 201.78 Z" />
<path fill="#4e656d" opacity="1.00" d=" M 180.35 203.31 C 180.99 203.27 182.26 203.18 182.90 203.13 C 183.25 205.85 180.58 207.51 178.25 207.92 C 175.54 206.48 178.61 203.94 180.35 203.31 Z" />
</g>
<g id="#808080ff">
<path fill="#808080" opacity="1.00" d=" M 126.29 213.32 C 131.01 211.85 136.21 216.92 134.58 221.65 C 133.44 226.14 127.40 228.25 123.79 225.22 C 119.62 221.99 120.95 214.43 126.29 213.32 Z" />
</g>
</svg>
